# xmcd
#
# Track frame offsets: 
#        150
#        15690
#        26002
#        37070
#        60825
#        76487
#        90802
#        103075
#        118462
#        129222
#        143842
#
# Disc length: 2016 seconds
#
# Revision: 0
# Processed by: cddbd v1.5.2PL0 Copyright (c) Steve Scherf et al.
# Submitted via: ExactAudioCopy v0.99pb5
#
DISCID=8707de0b
DTITLE=Charlie And The Tunas - Slam Bam
DYEAR=1991
DGENRE=Blues
TTITLE0=Static
TTITLE1=Das Boat
TTITLE2=Tearin' My Heart
TTITLE3=Seattle Blues
TTITLE4=Desire
TTITLE5=I'm Leavin'
TTITLE6=Rock Me
TTITLE7=I Call Your Name
TTITLE8=Dirty Robber
TTITLE9=Slam Bam
TTITLE10=Fred The Seal
EXTD=
EXTT0=
EXTT1=
EXTT2=
EXTT3=
EXTT4=
EXTT5=
EXTT6=
EXTT7=
EXTT8=
EXTT9=
EXTT10=
PLAYORDER=
